<svg width="36.000000" height="36.000000" viewBox="0 0 36 36" fill="none" xmlns="http://www.w3.org/2000/svg" xmlns:xlink="http://www.w3.org/1999/xlink">
	<desc>
			Created with Pixso.
	</desc>
	<defs>
		<clipPath id="clip24_1459">
			<rect width="36.000000" height="36.000000" fill="white" fill-opacity="0"/>
		</clipPath>
	</defs>
	<g clip-path="url(#clip24_1459)">
		<path d="M14 9L14 10.5L12 10.5L12 9C12 7.34375 13.3438 6 15 6L21 6C22.6562 6 24 7.34375 24 9L24 10.5L22 10.5L22 9C22 8.44824 21.5518 8 21 8L15 8C14.4482 8 14 8.44824 14 9ZM9 30L27 30C28.6562 30 30 28.6562 30 27L30 15C30 13.3438 28.6562 12 27 12L9 12C7.34375 12 6 13.3438 6 15L6 27C6 28.6562 7.34375 30 9 30ZM28 27C28 27.5518 27.5518 28 27 28L9 28C8.44824 28 8 27.5518 8 27L8 26L28 26L28 27ZM28 24L8 24L8 15C8 14.4482 8.44824 14 9 14L27 14C27.5518 14 28 14.4482 28 15L28 24ZM17 22L19 22C19.5522 22 20 21.5522 20 21C20 20.4478 19.5522 20 19 20L17 20C16.4478 20 16 20.4478 16 21C16 21.5522 16.4478 22 17 22Z" clip-rule="evenodd" fill="#148F2B" fill-opacity="1.000000" fill-rule="evenodd"/>
	</g>
</svg>
