<svg width="36.000000" height="36.000000" viewBox="0 0 36 36" fill="none" xmlns="http://www.w3.org/2000/svg" xmlns:xlink="http://www.w3.org/1999/xlink">
	<desc>
			Created with Pixso.
	</desc>
	<defs>
		<clipPath id="clip24_1934">
			<rect width="36.000000" height="36.000000" fill="white" fill-opacity="0"/>
		</clipPath>
	</defs>
	<g clip-path="url(#clip24_1934)">
		<path d="M29 16C29 20.4182 25.4183 24 21 24L17 24C12.9203 24 9.55402 20.9463 9.06189 17L7 17C6.44769 17 6 16.5522 6 16C6 15.4478 6.44769 15 7 15L19 15L19 7C19 6.44775 19.4477 6 20 6C24.9703 6 29 10.0298 29 15L29 16ZM21 15L21 8.0708C24.3921 8.55615 27 11.4739 27 15L21 15ZM17 22C14.1096 22 11.6965 19.9561 11.1272 17.2349L11.0829 17L26.9171 17C26.441 19.8376 23.973 22 21 22L17 22ZM16 28C16 26.3438 14.6563 25 13 25C11.3437 25 10 26.3438 10 28C10 29.6562 11.3437 31 13 31C14.6563 31 16 29.6562 16 28ZM25 25C26.6563 25 28 26.3438 28 28C28 29.6562 26.6563 31 25 31C23.3437 31 22 29.6562 22 28C22 26.3438 23.3437 25 25 25ZM12 28C12 27.4482 12.4483 27 13 27C13.5517 27 14 27.4482 14 28C14 28.5518 13.5517 29 13 29C12.4483 29 12 28.5518 12 28ZM24 28C24 27.4482 24.4483 27 25 27C25.5517 27 26 27.4482 26 28C26 28.5518 25.5517 29 25 29C24.4483 29 24 28.5518 24 28Z" clip-rule="evenodd" fill="#148F2B" fill-opacity="1.000000" fill-rule="evenodd"/>
	</g>
</svg>
