<svg width="36.000000" height="36.000000" viewBox="0 0 36 36" fill="none" xmlns="http://www.w3.org/2000/svg" xmlns:xlink="http://www.w3.org/1999/xlink">
	<desc>
			Created with Pixso.
	</desc>
	<defs>
		<clipPath id="clip24_2569">
			<rect width="36.000000" height="36.000000" fill="white" fill-opacity="0"/>
		</clipPath>
	</defs>
	<g clip-path="url(#clip24_2569)">
		<path d="M15.5116 5.66467C16.9822 4.82104 18.778 4.78088 20.2808 5.54419L20.5039 5.66479L27.499 9.67883C28.9789 10.5282 29.9161 12.0671 29.9948 13.755L30.0002 13.9861L30.0002 22.014C30.0002 23.7145 29.1274 25.2903 27.6974 26.2014L27.4989 26.3214L20.5035 30.3357C19.032 31.1791 17.2361 31.2192 15.7345 30.4559L15.5115 30.3354L8.61569 26.3783C8.57654 26.3621 8.53796 26.3431 8.50021 26.3214C7.61838 25.8151 6.91736 25.0559 6.48383 24.1483C6.24579 23.6499 6.45682 23.053 6.95517 22.8149C7.41794 22.5939 7.96573 22.76 8.23221 23.184L8.28854 23.2863C8.53375 23.7996 8.92239 24.234 9.41122 24.5364L9.51193 24.5868L16.5068 28.6007C17.3728 29.0974 18.4283 29.1306 19.32 28.7001L19.5085 28.6007L26.5034 24.5868C27.3724 24.088 27.9276 23.1951 27.9936 22.2118L28.0002 22.014L28.0002 13.9861C28.0002 12.9922 27.4994 12.0684 26.673 11.5183L26.5035 11.4135L19.5089 7.39966C18.6419 6.90271 17.5864 6.86963 16.6953 7.30005L16.5069 7.39941L9.51193 11.4135C9.0329 11.6884 8.42175 11.5228 8.14688 11.0438C7.89163 10.599 8.01608 10.0403 8.4187 9.74268L8.51648 9.67871L15.5116 5.66467ZM18 14C18.5523 14 19 14.4476 19 15C19 15.5128 18.614 15.9354 18.1166 15.9933L18 16L7 16C6.44772 16 6 15.5522 6 15C6 14.4872 6.38605 14.0645 6.88339 14.0067L7 14L18 14ZM15 19C15 18.4476 14.5523 18 14 18L7 18L6.88339 18.0067C6.38605 18.0645 6 18.4872 6 19C6 19.5522 6.44772 20 7 20L14 20L14.1166 19.9933C14.614 19.9354 15 19.5128 15 19Z" clip-rule="evenodd" fill="#148F2B" fill-opacity="1.000000" fill-rule="evenodd"/>
	</g>
</svg>
