<?xml version="1.0" encoding="UTF-8"?>
<svg width="36px" height="36px" viewBox="0 0 36 36" version="1.1" xmlns="http://www.w3.org/2000/svg" xmlns:xlink="http://www.w3.org/1999/xlink">
    <title>image_square_48х48_safes</title>
    <g id="image_square_48х48_safes" stroke="none" stroke-width="1" fill="none" fill-rule="evenodd">
        <g id="-36-Stroke-/-ic_36_safe" fill="#4D5862">
            <path d="M27,7 C27.5522847,7 28,7.44771525 28,8 L28,26 C28,26.5522847 27.5522847,27 27,27 L26,27 L26,28 C26,28.5128358 25.6139598,28.9355072 25.1166211,28.9932723 L25,29 C24.4477153,29 24,28.5522847 24,28 L24,28 L24,27 L12,27 L12,28 C12,28.5128358 11.6139598,28.9355072 11.1166211,28.9932723 L11,29 C10.4477153,29 10,28.5522847 10,28 L10,28 L10,27 L9,27 C8.44771525,27 8,26.5522847 8,26 L8,8 C8,7.44771525 8.44771525,7 9,7 L27,7 Z M26,9 L10,9 L10,25 L26,25 L26,9 Z M18,13 C20.2092847,13 22,14.7907153 22,17 C22,19.2092847 20.2092847,21 18,21 C15.7907153,21 14,19.2092847 14,17 C14,14.7907153 15.7907153,13 18,13 Z M18,15 C16.8952847,15 16,15.8952847 16,17 C16,18.1047153 16.8952847,19 18,19 C19.1047153,19 20,18.1047153 20,17 C20,15.8952847 19.1047153,15 18,15 Z" id="Shape"></path>
        </g>
    </g>
</svg>