<svg width="36.000000" height="36.000000" viewBox="0 0 36 36" fill="none" xmlns="http://www.w3.org/2000/svg" xmlns:xlink="http://www.w3.org/1999/xlink">
	<desc>
			Created with Pixso.
	</desc>
	<defs>
		<clipPath id="clip24_989">
			<rect width="36.000000" height="36.000000" fill="white" fill-opacity="0"/>
		</clipPath>
	</defs>
	<g clip-path="url(#clip24_989)">
		<path d="M28 9C29.6563 9 31 10.3438 31 12L31 25C31 26.6562 29.6563 28 28 28L8 28C6.34372 28 5 26.6562 5 25L5 12C5 10.3438 6.34372 9 8 9L28 9ZM28 11L8 11C7.44829 11 7 11.4482 7 12L7 25C7 25.5518 7.44829 26 8 26L28 26C28.5517 26 29 25.5518 29 25L29 12C29 11.4482 28.5517 11 28 11ZM25.2071 13.2928C25.5976 13.6835 25.5976 14.3165 25.2071 14.7072L21.4142 18.5L25.2071 22.2928C25.5976 22.6835 25.5976 23.3165 25.2071 23.7072C24.8166 24.0977 24.1834 24.0977 23.7929 23.7072L19.2929 19.2072C18.9024 18.8165 18.9024 18.1835 19.2929 17.7928L23.7929 13.2928C24.1834 12.9023 24.8166 12.9023 25.2071 13.2928Z" clip-rule="evenodd" fill="#148F2B" fill-opacity="1.000000" fill-rule="evenodd"/>
	</g>
</svg>
