<?xml version="1.0" encoding="UTF-8"?>
<svg width="36px" height="36px" viewBox="0 0 36 36" version="1.1" xmlns="http://www.w3.org/2000/svg" xmlns:xlink="http://www.w3.org/1999/xlink">
    <title> 36 Stroke_ic_36_mail</title>
    <g id="-36-Stroke_ic_36_mail" stroke="none" stroke-width="1" fill="none" fill-rule="evenodd">
        <g id="-36-Stroke_ic_36_mail" fill="#4D5862">
            <path d="M27,9 C28.6562847,9 30,10.3437153 30,12 L30,24 C30,25.6562847 28.6562847,27 27,27 L9,27 C7.34371525,27 6,25.6562847 6,24 L6,12 C6,10.3437153 7.34371525,9 9,9 L27,9 Z M28,14.821 L18,21.1853095 L8,14.821 L8,24 C8,24.5517153 8.44828475,25 9,25 L27,25 C27.5517153,25 28,24.5517153 28,24 L28,14.821 Z M27,11 L9,11 C8.44828475,11 8,11.4482847 8,12 L8,12.451 L18,18.8146905 L28,12.451 L28,12 C28,11.4482847 27.5517153,11 27,11 Z" id="Shape"></path>
        </g>
    </g>
</svg>