<svg width="36.000000" height="36.000000" viewBox="0 0 36 36" fill="none" xmlns="http://www.w3.org/2000/svg" xmlns:xlink="http://www.w3.org/1999/xlink">
	<desc>
			Created with Pixso.
	</desc>
	<defs>
		<clipPath id="clip24_1445">
			<rect width="36.000000" height="36.000000" fill="white" fill-opacity="0"/>
		</clipPath>
	</defs>
	<g clip-path="url(#clip24_1445)">
		<path d="M11.0581 9L11.0581 15.6372L7.12023 12.2317C6.72398 11.8889 6.13044 11.9102 5.75966 12.2803L3.63566 14.4001C3.25573 14.7795 3.24297 15.3909 3.60677 15.7856L11.0581 23.8706L11.0581 26C11.0581 27.6562 12.4018 29 14.0581 29L24.0581 29C25.7144 29 27.0581 27.6562 27.0581 26L27.0581 23.1121C30.4955 22.6558 32.7157 19.4644 32.7976 15.6052C32.8875 11.3687 30.3656 8 26.2002 8C26.1763 8 26.1526 8.00073 26.1292 8.00244C26.1057 8.00073 26.082 8 26.0581 8L12.0581 8C11.5058 8 11.0581 8.44775 11.0581 9ZM25.0581 10L13.0581 10L13.0581 17.824C13.0581 18.6804 12.0518 19.1406 11.404 18.5803L6.51484 14.3523L5.72868 15.137L12.7934 22.8022C12.9636 22.9871 13.0581 23.2288 13.0581 23.48L13.0581 26C13.0581 26.5518 13.5064 27 14.0581 27L24.0581 27C24.6098 27 25.0581 26.5518 25.0581 26L25.0581 10ZM30.798 15.5627C30.7378 18.3992 29.2723 20.6248 27.0581 21.0818L27.0581 10.0725C29.4504 10.4905 30.8593 12.6768 30.798 15.5627ZM19.0518 12C19.0518 12.5522 18.6041 13 18.0518 13L15.9998 13L15.9998 15.5181C15.9998 16.0703 15.5521 16.5181 14.9998 16.5181C14.4475 16.5181 13.9998 16.0703 13.9998 15.5181L13.9998 12C13.9998 11.4478 14.4475 11 14.9998 11L18.0518 11C18.6041 11 19.0518 11.4478 19.0518 12Z" clip-rule="evenodd" fill="#148F2B" fill-opacity="1.000000" fill-rule="evenodd"/>
	</g>
</svg>
