<svg width="36.000000" height="36.000000" viewBox="0 0 36 36" fill="none" xmlns="http://www.w3.org/2000/svg" xmlns:xlink="http://www.w3.org/1999/xlink">
	<desc>
			Created with Pixso.
	</desc>
	<defs>
		<clipPath id="clip24_3469">
			<rect width="36.000000" height="36.000000" fill="white" fill-opacity="0"/>
		</clipPath>
	</defs>
	<g clip-path="url(#clip24_3469)">
		<path d="M27 8C27 7.44775 26.5523 7 26 7L10 7L9.88338 7.00684C9.38605 7.06445 9 7.48706 9 8C9 8.55225 9.44772 9 10 9L17 9L17 27L8 27L7.88338 27.0068C7.38605 27.0645 7 27.4871 7 28C7 28.5522 7.44772 29 8 29L28 29L28.1166 28.9932C28.614 28.9355 29 28.5129 29 28C29 27.4478 28.5523 27 28 27L19 27L19 9L26 9L26.1166 8.99316C26.614 8.93555 27 8.51294 27 8ZM5.08383 20.0991L8.58383 12.0991C8.93335 11.3003 10.0666 11.3003 10.4162 12.0991L13.9162 20.0991C14.2052 20.7598 13.7211 21.5 13 21.5L5.99998 21.5C5.27884 21.5 4.79478 20.7598 5.08383 20.0991ZM22.0838 20.0991L25.5838 12.0991C25.9334 11.3003 27.0666 11.3003 27.4162 12.0991L30.9162 20.0991C31.2052 20.7598 30.7211 21.5 30 21.5L23 21.5C22.2788 21.5 21.7948 20.7598 22.0838 20.0991ZM11.47 19.5L9.49998 14.9951L7.52899 19.5L11.47 19.5ZM28.47 19.5L26.5 14.9951L24.529 19.5L28.47 19.5Z" clip-rule="evenodd" fill="#148F2B" fill-opacity="1.000000" fill-rule="evenodd"/>
	</g>
</svg>
