<svg width="36.000000" height="36.000000" viewBox="0 0 36 36" fill="none" xmlns="http://www.w3.org/2000/svg" xmlns:xlink="http://www.w3.org/1999/xlink">
	<desc>
			Created with Pixso.
	</desc>
	<defs>
		<clipPath id="clip24_2008">
			<rect width="36.000000" height="36.000000" fill="white" fill-opacity="0"/>
		</clipPath>
	</defs>
	<g clip-path="url(#clip24_2008)">
		<path d="M28.9698 28.7578C29.1589 29.514 28.4485 30.1862 27.7039 29.9556L23.1168 28.5354L22.8301 28.6857C18.2129 31.0231 12.2207 30.1906 8.51469 26.4856L8.28415 26.2487C3.8304 21.5464 3.90719 14.1227 8.51468 9.51416C13.2012 4.82874 20.7992 4.82874 25.4859 9.51428C29.1735 13.203 29.9133 18.5378 27.563 23.1302L28.9698 28.7578ZM9.92891 10.9285C13.8342 7.02405 20.1662 7.02405 24.0717 10.9286C27.2139 14.0717 27.7749 18.6154 25.6239 22.5177C25.502 22.7389 25.4683 22.9979 25.5296 23.2429L26.5988 27.5199L23.2955 26.4971C23.0253 26.4135 22.7324 26.4481 22.4892 26.5925C18.6599 28.866 13.4055 28.333 10.1478 25.2831L9.92883 25.0713C6.02433 21.1658 6.02435 14.8339 9.92891 10.9285ZM17.9946 20.1038C18.0507 19.5653 18.1194 19.4188 18.3489 19.2035L18.5393 19.0359L18.804 18.8127C20.0764 17.7279 20.688 16.7462 20.688 15.4191C20.688 13.2823 19.0982 11.5 17 11.5C14.821 11.5 13 12.9108 13 15C13 15.5524 13.4477 16 14 16C14.5128 16 14.9355 15.614 14.9933 15.1167L15 15C15 14.1431 15.83 13.5 17 13.5C17.9395 13.5 18.688 14.3392 18.688 15.4191C18.688 16.0493 18.3769 16.5487 17.5072 17.29L17.246 17.5104C17.1391 17.601 17.0583 17.672 16.9806 17.7449C16.3882 18.3005 16.1098 18.8947 16.0054 19.8964C15.9481 20.4457 16.347 20.9374 16.8963 20.9946C17.4456 21.0519 17.9373 20.6531 17.9946 20.1038ZM18.15 23.5001L18.15 24.0001C18.15 24.6353 17.6352 25.1501 17 25.1501C16.3649 25.1501 15.85 24.6353 15.85 24.0001L15.85 23.5001C15.85 22.865 16.3649 22.3501 17 22.3501C17.6352 22.3501 18.15 22.865 18.15 23.5001Z" clip-rule="evenodd" fill="#148F2B" fill-opacity="1.000000" fill-rule="evenodd"/>
	</g>
</svg>
