<svg width="36.000000" height="36.000000" viewBox="0 0 36 36" fill="none" xmlns="http://www.w3.org/2000/svg" xmlns:xlink="http://www.w3.org/1999/xlink">
	<desc>
			Created with Pixso.
	</desc>
	<defs>
		<clipPath id="clip24_1527">
			<rect width="36.000000" height="36.000000" fill="white" fill-opacity="0"/>
		</clipPath>
	</defs>
	<g clip-path="url(#clip24_1527)">
		<path d="M28.9949 7.82373C28.9036 6.24939 27.5971 5 26 5L14 5L13.8238 5.00513C12.2495 5.09644 11 6.40283 11 8L11 9L10 9C8.34369 9 7 10.3438 7 12L7 28C7 29.6562 8.34369 31 10 31L22 31C23.6563 31 25 29.6562 25 28L25 27.0004L26.168 27.0006L26.4551 27.0023C27.1667 27.0033 27.469 26.972 27.8666 26.8141C28.6035 26.5214 29 25.8702 29 25L29 8L28.9949 7.82373ZM25 25L26.6826 25.0001C26.7568 24.9988 26.8198 24.9966 26.8734 24.9935L27 24.983L27 8C27 7.48767 26.6135 7.06458 26.1165 7.00671L26 7L14 7C13.4877 7 13.0646 7.38647 13.0067 7.88354L13 8L13 9L22 9C23.6563 9 25 10.3438 25 12L25 25ZM22 11L10 11C9.4483 11 9 11.4482 9 12L9 28C9 28.5518 9.4483 29 10 29L22 29C22.5517 29 23 28.5518 23 28L23 12C23 11.4482 22.5517 11 22 11ZM21 16L21 14L11 14L11 16L21 16ZM21 21L21 19L11 19L11 21L21 21ZM21 24L21 26L11 26L11 24L21 24Z" clip-rule="evenodd" fill="#148F2B" fill-opacity="1.000000" fill-rule="evenodd"/>
	</g>
</svg>
