<svg width="36" height="36" viewBox="0 0 36 36" fill="none" xmlns="http://www.w3.org/2000/svg">
<path fill-rule="evenodd" clip-rule="evenodd" d="M27 7C27.5523 7 28 7.44772 28 8V26C28 26.5523 27.5523 27 27 27H25.9969V28.0034C25.9969 28.5545 25.5501 29.0013 24.999 29.0013C24.4478 29.0013 24.001 28.5545 24.001 28.0034V27H12.0023V28.0013C12.0023 28.5536 11.5546 29.0013 11.0023 29.0013C10.4463 29.0013 9.99857 28.5536 9.99857 28.0013V27H9C8.44772 27 8 26.5523 8 26V8C8 7.44772 8.44772 7 9 7C18 7 18 7 27 7ZM26 9H10V25H26V9ZM18.2929 19.7071C18.6826 20.0968 19.314 20.0978 19.7049 19.7093L23.7049 15.7343C24.0966 15.345 24.0986 14.7119 23.7093 14.3201C23.32 13.9284 22.6869 13.9264 22.2951 14.3157L19.0022 17.588L16.7071 15.2929C16.3166 14.9024 15.6834 14.9024 15.2929 15.2929L12.2929 18.2929C11.9024 18.6834 11.9024 19.3166 12.2929 19.7071C12.6834 20.0976 13.3166 20.0976 13.7071 19.7071L16 17.4142L18.2929 19.7071Z" fill="#262626"/>
</svg>
