<svg width="36.000000" height="36.000000" viewBox="0 0 36 36" fill="none" xmlns="http://www.w3.org/2000/svg" xmlns:xlink="http://www.w3.org/1999/xlink">
	<desc>
			Created with Pixso.
	</desc>
	<defs>
		<clipPath id="clip24_965">
			<rect width="36.000000" height="36.000000" fill="white" fill-opacity="0"/>
		</clipPath>
	</defs>
	<g clip-path="url(#clip24_965)">
		<path d="M28.0003 8.00012C28.0003 7.44788 27.5526 7.00012 27.0003 7.00012L9.00031 7.00012C8.44801 7.00012 8.00031 7.44788 8.00031 8.00012L8.00031 20.2931C8.00031 23.5612 9.77208 26.5728 12.6285 28.1602L17.5147 30.8743C17.8167 31.0421 18.184 31.0421 18.486 30.8743L23.371 28.1603C26.2283 26.573 28.0003 23.5615 28.0003 20.2931L28.0003 8.00012ZM10.0003 9.00012L10.0003 20.2931C10.0003 22.835 11.3784 25.1774 13.5999 26.412L18.0003 28.8562L22.3997 26.412C24.6221 25.1774 26.0003 22.8351 26.0003 20.2931L26.0003 9.00012L10.0003 9.00012ZM12 18L12 12C12 11.4478 12.4477 11 13 11L19.0004 11C19.5524 11 20 11.4476 20 11.9996C20 12.5518 19.5524 12.9993 19.0004 12.9993L14 12.9993L14 18C14 18.5522 13.5523 19 13 19C12.4477 19 12 18.5522 12 18Z" clip-rule="evenodd" fill="#148F2B" fill-opacity="1.000000" fill-rule="evenodd"/>
	</g>
</svg>
