<svg width="36.000000" height="36.000000" viewBox="0 0 36 36" fill="none" xmlns="http://www.w3.org/2000/svg" xmlns:xlink="http://www.w3.org/1999/xlink">
	<desc>
			Created with Pixso.
	</desc>
	<defs>
		<clipPath id="clip35833_940">
			<rect width="36.000000" height="36.000000" fill="white" fill-opacity="0"/>
		</clipPath>
	</defs>
	<g clip-path="url(#clip35833_940)">
		<path d="M10 5L26 5C27.65 5 29 6.34 29 8L29 28C29 29.65 27.65 31 26 31L10 31C8.34 31 7 29.65 7 28L7 8C7 6.34 8.34 5 10 5ZM26 7L10 7C9.44 7 9 7.44 9 8L9 28C9 28.55 9.44 29 10 29L26 29C26.55 29 27 28.55 27 28L27 8C27 7.44 26.55 7 26 7ZM20.76 10.59C19.93 10.16 18.99 9.91 18 9.91C14.68 9.91 12 12.63 12 16L14 16C14 13.75 15.79 11.94 18 11.94C18.57 11.94 19.11 12.06 19.61 12.28L20.76 10.59ZM22 16C22 14.88 21.55 13.87 20.84 13.14L21.99 11.45C23.22 12.57 24 14.19 24 16L22 16ZM24 19L24 21L12 21L12 19L24 19ZM19 25L19 23L12 23L12 25L19 25Z" fill="#148F2B" fill-opacity="1.000000" fill-rule="evenodd"/>
	</g>
</svg>
