<svg width="36.000000" height="36.000000" viewBox="0 0 36 36" fill="none" xmlns="http://www.w3.org/2000/svg" xmlns:xlink="http://www.w3.org/1999/xlink">
	<desc>
			Created with Pixso.
	</desc>
	<defs>
		<clipPath id="clip24_1965">
			<rect width="36.000000" height="36.000000" fill="white" fill-opacity="0"/>
		</clipPath>
	</defs>
	<g clip-path="url(#clip24_1965)">
		<path d="M9 11L9 12L27 12C28.6562 12 30 13.3438 30 15L30 25C30 26.6562 28.6562 28 27 28L10 28C8.34375 28 7 26.6562 7 25L7 11C7 9.34375 8.34375 8 10 8L27 8C27.5522 8 28 8.44775 28 9C28 9.55225 27.5522 10 27 10L10 10C9.44824 10 9 10.4482 9 11ZM9 14L27 14C27.5518 14 28 14.4482 28 15L28 25C28 25.5518 27.5518 26 27 26L10 26C9.44824 26 9 25.5518 9 25L9 14ZM24.9785 21.0005C25.5195 21.0005 25.9575 20.5625 25.9575 20.0215C25.9575 19.4805 25.5195 19.0425 24.9785 19.0425C24.4375 19.0425 23.9995 19.4805 23.9995 20.0215C23.9995 20.5625 24.4375 21.0005 24.9785 21.0005Z" clip-rule="evenodd" fill="#148F2B" fill-opacity="1.000000" fill-rule="evenodd"/>
	</g>
</svg>
