<svg width="36.000000" height="36.000000" viewBox="0 0 36 36" fill="none" xmlns="http://www.w3.org/2000/svg" xmlns:xlink="http://www.w3.org/1999/xlink">
	<desc>
			Created with Pixso.
	</desc>
	<defs>
		<clipPath id="clip24_1288">
			<rect width="36.000000" height="36.000000" fill="white" fill-opacity="0"/>
		</clipPath>
	</defs>
	<g clip-path="url(#clip24_1288)">
		<path d="M18.1466 6.15967C18.8593 5.44141 19.8511 5 20.968 5C23.2296 5 25.211 6.78735 25.211 8.98291C25.211 9.5354 24.7632 9.98291 24.211 9.98291L21.968 9.98291L21.968 13L23.936 13C24.9185 13 26 11.7632 26 10.604L26 8C26 7.24585 26.803 6.76318 27.469 7.1167L29.4114 8.15112C34.2897 11.188 34.1398 17.8433 29.3618 21.0435L29.127 21.1956L28.9161 21.3218C27.9738 21.855 27.0119 21.9958 25.4362 22.0002L23.4081 22L25.9347 28.6445C26.1429 29.1921 25.838 29.8005 25.2747 29.9614L18.2747 31.9614C18.0952 32.0129 17.9048 32.0129 17.7252 31.9614L10.7252 29.9614C10.162 29.8005 9.85706 29.1921 10.0652 28.6445L12.5919 22L10.5616 22.0002C8.98792 21.9958 8.02625 21.855 7.08392 21.3218L6.89551 21.21L6.63837 21.0435C1.86505 17.8447 1.74011 11.1584 6.68439 8.08301L8.53638 7.11401C9.20221 6.76562 10 7.24854 10 8L10 11C10 12.054 10.9773 13 12.064 13L14.032 13L14.032 9.98291L11.7889 9.98291C11.2367 9.98291 10.7889 9.5354 10.7889 8.98291C10.7889 6.7876 12.7711 5 15.032 5C16.1443 5 17.1358 5.43872 17.8496 6.15918L17.9982 6.31787L18.1466 6.15967ZM15.032 7C16.11 7 16.9379 7.79761 16.9966 8.86279L17.007 9.11621C17.1309 10.272 18.869 10.272 18.993 9.11621L19.0052 8.83179C19.0775 7.78589 19.8976 7 20.968 7C21.7579 7 22.4796 7.40723 22.8807 7.98291L20.968 7.98291C20.4157 7.98291 19.968 8.43066 19.968 8.98291L19.968 14C19.968 14.5522 20.4157 15 20.968 15L23.936 15C26.0872 15 28 12.8125 28 10.604L28 9.66333L28.4139 9.8833C31.9608 12.094 31.8553 16.9592 28.2559 19.377L28.0299 19.5229L27.9095 19.5925C27.3408 19.9014 26.6625 19.9968 25.4335 20.0002L21.958 20C21.2579 20 20.7744 20.7009 21.0233 21.3555L23.6782 28.3376L18 29.96L12.3217 28.3376L14.9767 21.3555C15.2255 20.7009 14.7421 20 14.0419 20L10.5643 20.0002C9.33734 19.9968 8.65918 19.9014 8.09039 19.5925L7.95154 19.5112L7.74451 19.3772C4.15247 16.9626 4.06537 12.0664 7.67657 9.81787L8 9.64917L8 11C8 13.1736 9.88708 15 12.064 15L15.032 15C15.5842 15 16.032 14.5522 16.032 14L16.032 8.98291C16.032 8.43066 15.5842 7.98291 15.032 7.98291L13.1194 7.98291C13.5208 7.40747 14.2424 7 15.032 7Z" clip-rule="evenodd" fill="#148F2B" fill-opacity="1.000000" fill-rule="evenodd"/>
	</g>
</svg>
