<svg width="36.000000" height="36.000000" viewBox="0 0 36 36" fill="none" xmlns="http://www.w3.org/2000/svg" xmlns:xlink="http://www.w3.org/1999/xlink">
	<desc>
			Created with Pixso.
	</desc>
	<defs>
		<clipPath id="clip24_1599">
			<rect width="36.000000" height="36.000000" fill="white" fill-opacity="0"/>
		</clipPath>
	</defs>
	<g clip-path="url(#clip24_1599)">
		<path d="M14 10.5L14 9C14 8.44824 14.4482 8 15 8L21 8C21.5518 8 22 8.44824 22 9L22 10.5L24 10.5L24 9C24 7.34375 22.6562 6 21 6L15 6C13.3438 6 12 7.34375 12 9L12 10.5L14 10.5ZM30 15C30 13.3438 28.6562 12 27 12L9 12C7.34375 12 6 13.3438 6 15L6 27C6 28.6562 7.34375 30 9 30L27 30C28.6562 30 30 28.6562 30 27L30 15ZM9 14L27 14C27.5518 14 28 14.4482 28 15L28 27C28 27.5518 27.5518 28 27 28L9 28C8.44824 28 8 27.5518 8 27L8 15C8 14.4482 8.44824 14 9 14ZM19.7125 23.7017C19.3229 24.0974 18.6855 24.0999 18.2928 23.707L16 21.4143L13.7072 23.707C13.3165 24.0977 12.6835 24.0977 12.2928 23.707C11.9023 23.3167 11.9023 22.6833 12.2928 22.293L15.2928 19.293C15.6835 18.9023 16.3165 18.9023 16.7072 19.293L18.9945 21.5803L22.2264 18.2983C22.614 17.9048 23.2472 17.8999 23.6406 18.2876C24.0342 18.675 24.0391 19.3081 23.6515 19.7017L19.7125 23.7017Z" clip-rule="evenodd" fill="#148F2B" fill-opacity="1.000000" fill-rule="evenodd"/>
	</g>
</svg>
