<svg width="36.000000" height="36.000000" viewBox="0 0 36 36" fill="none" xmlns="http://www.w3.org/2000/svg" xmlns:xlink="http://www.w3.org/1999/xlink">
	<desc>
			Created with Pixso.
	</desc>
	<defs>
		<clipPath id="clip24_1702">
			<rect width="36.000000" height="36.000000" fill="white" fill-opacity="0"/>
		</clipPath>
	</defs>
	<g clip-path="url(#clip24_1702)">
		<path d="M27 7C27.5522 7 28 7.44775 28 8L28 26C28 26.5522 27.5522 27 27 27L26 27L26 28C26 28.5522 25.5522 29 25 29C24.4478 29 24 28.5522 24 28L24 27L12 27L12 28C12 28.5522 11.5522 29 11 29C10.4478 29 10 28.5522 10 28L10 27L9 27C8.44775 27 8 26.5522 8 26L8 8C8 7.44775 8.44775 7 9 7L27 7ZM10 9L26 9L26 25L10 25L10 9ZM18 13C20.2092 13 22 14.7908 22 17C22 19.2092 20.2092 21 18 21C15.7908 21 14 19.2092 14 17C14 14.7908 15.7908 13 18 13ZM16 17C16 15.8953 16.8953 15 18 15C19.1047 15 20 15.8953 20 17C20 18.1047 19.1047 19 18 19C16.8953 19 16 18.1047 16 17Z" clip-rule="evenodd" fill="#148F2B" fill-opacity="1.000000" fill-rule="evenodd"/>
	</g>
</svg>
