<svg width="36.000000" height="36.000000" viewBox="0 0 36 36" fill="none" xmlns="http://www.w3.org/2000/svg" xmlns:xlink="http://www.w3.org/1999/xlink">
	<desc>
			Created with Pixso.
	</desc>
	<defs>
		<clipPath id="clip24_3276">
			<rect width="36.000000" height="36.000000" fill="white" fill-opacity="0"/>
		</clipPath>
	</defs>
	<g clip-path="url(#clip24_3276)">
		<path d="M30 8L6 8C5.44769 8 5 8.44775 5 9L5 23C5 23.5522 5.44769 24 6 24L30 24C30.5523 24 31 23.5522 31 23L31 9C31 8.44775 30.5523 8 30 8ZM7 22L7 10L29 10L29 22L7 22ZM18 12C15.7907 12 14 13.7908 14 16C14 18.2092 15.7907 20 18 20C20.2093 20 22 18.2092 22 16C22 13.7908 20.2093 12 18 12ZM12 15C12 14.4478 11.5523 14 11 14C10.4477 14 10 14.4478 10 15L10 17C10 17.5522 10.4477 18 11 18C11.5523 18 12 17.5522 12 17L12 15ZM18 14C19.1047 14 20 14.8953 20 16C20 17.1047 19.1047 18 18 18C16.8953 18 16 17.1047 16 16C16 14.8953 16.8953 14 18 14ZM26 15C26 14.4478 25.5523 14 25 14C24.4477 14 24 14.4478 24 15L24 17C24 17.5522 24.4477 18 25 18C25.5523 18 26 17.5522 26 17L26 15ZM29.939 26C30.4913 26 30.939 26.4478 30.939 27C30.939 27.5129 30.553 27.9355 30.0556 27.9932L29.939 28L6 28C5.44769 28 5 27.5522 5 27C5 26.4871 5.38605 26.0645 5.88336 26.0068L6 26L29.939 26Z" clip-rule="evenodd" fill="#148F2B" fill-opacity="1.000000" fill-rule="evenodd"/>
	</g>
</svg>
